<svg id="Layer_1" data-name="Layer 1" xmlns="http://www.w3.org/2000/svg" viewBox="0 0 1000 605.61"><defs><style>.cls-1{fill:#3b3b3b;}.cls-2{fill:#d8d8d8;}.cls-3{fill:none;}</style></defs><path class="cls-1" d="M12.41,313.39a12.41,12.41,0,0,1-8.78-21.18L292.21,3.63a12.41,12.41,0,1,1,17.54,17.55L21.18,309.75A12.38,12.38,0,0,1,12.41,313.39Z"/><path class="cls-1" d="M175.13,370.7,323.64,222.2a42,42,0,0,0-59.4-59.4L86,341a42,42,0,0,0,0,59.4L264.24,578.61a42,42,0,1,0,59.4-59.4Z"/><path class="cls-2" d="M800.79,162.8a42,42,0,1,0-59.4,59.4l64.49,64.5h118.8Z"/><path class="cls-2" d="M741.39,519.21a42,42,0,0,0,59.4,59.4l123.89-123.9H805.88Z"/><path class="cls-2" d="M363.89,565.87a25.2,25.2,0,1,0,41.18,29.07l99-140.23h-61.7Z"/><path class="cls-2" d="M701.13,175.53A25.2,25.2,0,1,0,660,146.47L561,286.7h61.7Z"/><polygon class="cls-3" points="1000 286.7 924.68 286.7 805.88 286.7 622.66 286.7 560.96 286.7 269.15 286.7 269.15 454.71 442.36 454.71 504.06 454.71 805.88 454.71 924.68 454.71 1000 454.71 1000 286.7"/><path class="cls-1" d="M269.15,401.46l22.92-51.55a20.19,20.19,0,0,1,7-8.6q4.56-3.13,14-3.13,7.64,0,12.61,2.93a19.34,19.34,0,0,1,7.71,8.8l22.91,51.55H327.25l-5.86-12.82H295.07l-5.46,12.82Zm30.14-22.78h17l-6.82-16.09a5.27,5.27,0,0,0-.48-1.36,1.08,1.08,0,0,0-1-.69,1.2,1.2,0,0,0-1.16.69c-.23.45-.43.91-.61,1.36Z"/><path class="cls-1" d="M437.44,403.5a41.11,41.11,0,0,1-8.72-.88,18.7,18.7,0,0,1-7.23-3.21c-.64-.54-1.41-1.16-2.32-1.84s-1.87-1.45-2.86-2.32-2-1.75-3.07-2.66-2.07-1.82-3.07-2.73-2-1.81-2.87-2.72c-1.09-1.09-2-2-2.86-2.73s-1.77-1.5-2.86-2.32L399,380.86v20.6H372.25V346.77a19.86,19.86,0,0,1,.41-4.36,4.09,4.09,0,0,1,2.19-2.73q1.77-1,6-1H399v20.6l2.59-1.09a13.11,13.11,0,0,0,1.84-1.3q.88-.75,2.25-2a42.5,42.5,0,0,1,3.88-3.61c1.78-1.5,3.64-3.09,5.6-4.78s3.52-3,4.7-4a20.92,20.92,0,0,1,8.12-3.68,52,52,0,0,1,10.84-1,70.71,70.71,0,0,1,7.7.35c2.05.22,4.25.56,6.62,1a11.13,11.13,0,0,0-1.57,1.43c-.87.87-1.84,1.75-2.93,2.66l-2.46,2.05q-5.31,3.68-11.32,8T423.12,362q-5.72,4.29-10.22,8.38l.13-7.77q4.1,3.41,9,7.36t10.37,8.32q5.44,4.37,11.18,8.8t11.59,8.52a15.34,15.34,0,0,1-3.13,3.07,24.6,24.6,0,0,1-6,3.34A22.71,22.71,0,0,1,437.44,403.5Z"/><path class="cls-1" d="M470.72,401.46V345.81q0-4.63,2-5.86c1.31-.82,3.61-1.23,6.88-1.23h18V362h26.73V338.72h26.86v54.55q0,4.92-1.57,6.55t-7.43,1.64H524.32V375.68H497.59v25.78Z"/><path class="cls-1" d="M565.77,401.46l22.92-51.55a20.19,20.19,0,0,1,7-8.6q4.56-3.13,14-3.13,7.63,0,12.61,2.93a19.34,19.34,0,0,1,7.71,8.8l22.91,51.55h-29L618,388.64H591.69l-5.46,12.82Zm30.14-22.78H613l-6.82-16.09a5.64,5.64,0,0,0-.47-1.36,1.1,1.1,0,0,0-1-.69,1.2,1.2,0,0,0-1.16.69c-.23.45-.43.91-.61,1.36Z"/><path class="cls-1" d="M709,382.09q-4.5,0-7.7.07t-6.21.07v19.23H668.19V347.59a10.62,10.62,0,0,1,1.78-6.41q1.77-2.46,7.77-2.46,2,0,6.48-.07t10.16-.06q5.73,0,11.93-.07t11.8,0l9.75.13q4.15.08,5.93.21,7.5.69,11.32,4.36t3.82,12.28q0,8.17-1,11.59a9.43,9.43,0,0,1-3.27,5.18,7,7,0,0,1-3.07,1.43,18.18,18.18,0,0,1-4.29.48v.68h2.38A16.1,16.1,0,0,1,742,375q5.19,1,6.28,3.82a17.23,17.23,0,0,1,1.09,6.13v10.91A10.35,10.35,0,0,0,750,400a9.78,9.78,0,0,0,.75,1.44H730.38a13.38,13.38,0,0,1-6.34-1.23c-1.5-.82-2.25-2.54-2.25-5.18v-6.82q0-4.23-1.84-5.18t-6.48-1Zm-13.91-12.55c.82,0,2.14,0,4,.07s3.79.07,5.93.07h9.75a7.24,7.24,0,0,0,4.91-1.91q2.17-1.9,2.18-6.95a10.8,10.8,0,0,0-1.23-5.59,5.2,5.2,0,0,0-3.95-2.46,31.45,31.45,0,0,0-4.57-.27h-5.8c-2,0-3.84,0-5.52.07s-2.93.06-3.75.06a6.53,6.53,0,0,0-1,.34c-.6.23-.89.8-.89,1.71Z"/><path class="cls-1" d="M769.11,401.46V347.18c0-3.46.53-5.73,1.57-6.82s3.57-1.64,7.57-1.64h25.64l25.64,35.6.82,4.23V338.72h19.5a8.69,8.69,0,0,0-.27,1.91c-.1,1.09-.14,2.3-.14,3.62v50.12q0,4.77-2.32,5.93c-1.55.77-4.27,1.16-8.18,1.16H815.62L789,364.77l-.81-4.36v41Z"/><path class="cls-1" d="M871.4,401.46V346.77a20.18,20.18,0,0,1,.41-4.43,3.85,3.85,0,0,1,2.25-2.73,15,15,0,0,1,6.06-.89h18.14v62.74Z"/><path class="cls-1" d="M912.86,401.46l22.91-51.55a20.19,20.19,0,0,1,7-8.6c3.05-2.09,7.7-3.13,14-3.13q7.63,0,12.61,2.93a19.34,19.34,0,0,1,7.71,8.8L1000,401.46H971l-5.86-12.82H938.77l-5.46,12.82ZM943,378.68h17l-6.82-16.09a5.64,5.64,0,0,0-.47-1.36,1.1,1.1,0,0,0-1-.69,1.2,1.2,0,0,0-1.16.69c-.22.45-.43.91-.61,1.36Z"/></svg>