<?xml version="1.0" encoding="utf-8"?>
<!-- Generator: Adobe Illustrator 25.4.1, SVG Export Plug-In . SVG Version: 6.00 Build 0)  -->
<svg version="1.1" id="Layer_1" xmlns="http://www.w3.org/2000/svg" xmlns:xlink="http://www.w3.org/1999/xlink" x="0px" y="0px"
	 viewBox="0 0 1000 1000" style="enable-background:new 0 0 1000 1000;" xml:space="preserve">
<style type="text/css">
	.st0{fill:#F2F2F2;}
</style>
<path class="st0" d="M960,0H823.8L258.2,565.6c-9.6,9.6-25.2,9.6-34.9,0c-9.6-9.6-9.6-25.2,0.1-34.9l0,0L754,0H40
	C17.9,0,0,17.9,0,40v920c0,22.1,17.9,40,40,40h601.4L387,745.6c-32.5-32.6-32.5-85.4,0-118l354-354c32.8-32.4,85.6-32.1,118,0.7
	c32.1,32.5,32.1,84.8,0,117.3l-295,295l277.8,277.8C936,913.8,1000,814.4,1000,700V40C1000,17.9,982.1,0,960,0z"/>
</svg>
