<?xml version="1.0" encoding="utf-8"?>
<!-- Generator: Adobe Illustrator 25.4.1, SVG Export Plug-In . SVG Version: 6.00 Build 0)  -->
<svg version="1.1" id="Layer_1" xmlns="http://www.w3.org/2000/svg" xmlns:xlink="http://www.w3.org/1999/xlink" x="0px" y="0px"
	 viewBox="0 0 1000 1000" style="enable-background:new 0 0 1000 1000;" xml:space="preserve">
<style type="text/css">
	.st0{fill:#F2F2F2;}
</style>
<g>
	<path class="st0" d="M236.4,529.3c-5.2,0-10.4-2-14.4-6c-7.9-7.9-7.9-20.8,0-28.7L710.4,6.3c7.9-7.9,20.8-7.9,28.7,0
		s7.9,20.8,0,28.7L250.8,523.4C246.8,527.3,241.6,529.3,236.4,529.3z"/>
	<path class="st0" d="M511.8,627l251.3-251.3c27.8-27.8,27.8-72.8,0-100.5c-27.8-27.8-72.8-27.8-100.5,0L361,576.7
		c-13.3,13.3-20.8,31.4-20.8,50.3s7.5,36.9,20.8,50.3l301.6,301.6c13.9,13.9,32.1,20.8,50.3,20.8s36.4-6.9,50.3-20.8
		c27.8-27.8,27.8-72.8,0-100.5L511.8,627z"/>
</g>
</svg>
