<?xml version="1.0" encoding="utf-8"?>
<!-- Generator: Adobe Illustrator 25.4.1, SVG Export Plug-In . SVG Version: 6.00 Build 0)  -->
<svg version="1.1" id="Layer_1" xmlns="http://www.w3.org/2000/svg" xmlns:xlink="http://www.w3.org/1999/xlink" x="0px" y="0px"
	 viewBox="0 0 1000 1000" style="enable-background:new 0 0 1000 1000;" xml:space="preserve">
<style type="text/css">
	.st0{fill:#3C3C3B;}
	.st1{fill:#D8D8D8;enable-background:new    ;}
	.st2{fill:none;}
</style>
<g>
	<path class="st0" d="M30.3,529.1c-6.3,0-12.6-2.4-17.4-7.2c-9.6-9.6-9.6-25.2,0-34.8l281.7-281.7c9.6-9.6,25.2-9.6,34.8,0
		c9.6,9.6,9.6,25.2,0,34.8L47.7,521.9C42.9,526.7,36.6,529.1,30.3,529.1z"/>
	<path class="st0" d="M189.1,572.5l145-145c16-16,16-42,0-58c-16-16-42-16-58,0l-174,174c-7.7,7.7-12,18.1-12,29s4.3,21.3,12,29
		l174,174c8,8,18.5,12,29,12c10.5,0,21-4,29-12c16-16,16-42,0-58L189.1,572.5z"/>
	<path class="st1" d="M799.9,369.6c-16-16-42-16-58,0s-16,42,0,58l63,63h116L799.9,369.6z"/>
	<path class="st1" d="M741.9,717.5c-16,16-16,42,0,58c8,8,18.5,12,29,12c10.5,0,21-4,29-12l120.9-120.9h-116L741.9,717.5z"/>
	<path class="st1" d="M373.4,763c-7.8,11.1-5.2,26.5,5.9,34.3c4.3,3,9.3,4.5,14.2,4.5c7.7,0,15.3-3.6,20.1-10.4l96.6-136.9H450
		L373.4,763z"/>
	<path class="st1" d="M702.6,382c7.8-11.1,5.2-26.5-5.9-34.3s-26.5-5.2-34.3,5.9l-96.6,136.9H626L702.6,382z"/>
	<polygon class="st2" points="994.3,490.5 920.8,490.5 804.8,490.5 626,490.5 565.8,490.5 280.9,490.5 280.9,654.5 450,654.5 
		510.2,654.5 804.8,654.5 920.8,654.5 994.3,654.5 	"/>
	<g>
		<path class="st0" d="M280.9,602.5l22.4-50.3c1.6-3.5,3.9-6.3,6.9-8.4c3-2,7.5-3.1,13.6-3.1c5,0,9.1,1,12.3,2.9
			c3.2,1.9,5.7,4.8,7.5,8.6l22.4,50.3h-28.4l-5.7-12.5h-25.7l-5.3,12.5L280.9,602.5L280.9,602.5z M310.3,580.3H327l-6.7-15.7
			c-0.1-0.4-0.2-0.9-0.5-1.3c-0.2-0.4-0.6-0.7-1-0.7c-0.5,0-0.9,0.2-1.1,0.7c-0.2,0.4-0.4,0.9-0.6,1.3L310.3,580.3z"/>
		<path class="st0" d="M445.2,604.5c-3,0-5.9-0.3-8.5-0.9c-2.7-0.6-5-1.6-7.1-3.1c-0.6-0.5-1.4-1.1-2.3-1.8
			c-0.9-0.7-1.8-1.4-2.8-2.3c-1-0.8-2-1.7-3-2.6c-1-0.9-2-1.8-3-2.7c-1-0.9-1.9-1.8-2.8-2.7c-1.1-1.1-2-1.9-2.8-2.7
			c-0.8-0.7-1.7-1.5-2.8-2.3l-2.5-1.2v20.1h-26.1v-53.4c0-1.7,0.1-3.1,0.4-4.3c0.3-1.2,1-2,2.1-2.7c1.2-0.6,3.1-0.9,5.9-0.9
			c2.9,0,5.9,0,8.9,0c3,0,5.9,0,8.9,0c0,1.3,0,2.9,0,4.7s0,3.6,0,5.5c0,1.9,0,3.7,0,5.5c0,1.8,0,3.3,0,4.5l2.5-1.1
			c0.6-0.4,1.2-0.8,1.8-1.3c0.6-0.5,1.3-1.1,2.2-1.9c0.8-0.9,2.1-2.1,3.8-3.5s3.5-3,5.5-4.7c1.9-1.6,3.4-3,4.6-3.9
			c2.4-1.8,5-3,7.9-3.6c2.9-0.6,6.4-0.9,10.6-0.9c3,0,5.5,0.1,7.5,0.3c2,0.2,4.1,0.6,6.5,1c-0.2,0.1-0.7,0.6-1.5,1.4
			c-0.8,0.8-1.8,1.7-2.9,2.6c-1.1,0.9-1.9,1.6-2.4,2c-3.5,2.4-7.1,5-11,7.8c-3.9,2.8-7.7,5.6-11.4,8.4c-3.7,2.8-7.1,5.5-10,8.2
			l0.1-7.6c2.7,2.2,5.6,4.6,8.8,7.2c3.2,2.6,6.6,5.3,10.1,8.1c3.5,2.8,7.2,5.7,10.9,8.6c3.7,2.9,7.5,5.7,11.3,8.3
			c-0.5,0.8-1.6,1.8-3.1,3c-1.5,1.2-3.5,2.3-5.9,3.3C451.2,604.1,448.4,604.5,445.2,604.5z"/>
		<path class="st0" d="M477.7,602.5v-54.3c0-3,0.6-4.9,1.9-5.7c1.3-0.8,3.5-1.2,6.7-1.2h17.6v22.8H530v-22.8h26.2v53.3
			c0,3.2-0.5,5.3-1.5,6.4c-1,1.1-3.4,1.6-7.3,1.6H530v-25.2h-26.1v25.2L477.7,602.5L477.7,602.5z"/>
		<path class="st0" d="M570.4,602.5l22.4-50.3c1.6-3.5,3.9-6.3,6.9-8.4c3-2,7.5-3.1,13.6-3.1c5,0,9.1,1,12.3,2.9
			c3.2,1.9,5.7,4.8,7.5,8.6l22.4,50.3h-28.4l-5.7-12.5h-25.7l-5.3,12.5L570.4,602.5L570.4,602.5z M599.9,580.3h16.6l-6.7-15.7
			c-0.1-0.4-0.2-0.9-0.5-1.3c-0.2-0.4-0.6-0.7-1-0.7c-0.5,0-0.9,0.2-1.1,0.7c-0.2,0.4-0.4,0.9-0.6,1.3L599.9,580.3z"/>
		<path class="st0" d="M710.2,583.6c-2.9,0-5.4,0-7.5,0.1c-2.1,0-4.1,0.1-6.1,0.1v18.8h-26.2V550c0-2.6,0.6-4.7,1.7-6.3
			s3.7-2.4,7.6-2.4c1.3,0,3.4,0,6.3-0.1c2.9,0,6.2-0.1,9.9-0.1c3.7,0,7.6,0,11.7-0.1c4,0,7.9,0,11.5,0c3.6,0,6.8,0.1,9.5,0.1
			c2.7,0,4.6,0.1,5.8,0.2c4.9,0.4,8.6,1.9,11,4.3c2.5,2.4,3.7,6.4,3.7,12c0,5.3-0.3,9.1-0.9,11.3s-1.7,3.9-3.2,5.1
			c-0.7,0.6-1.7,1.1-3,1.4c-1.3,0.3-2.7,0.5-4.2,0.5v0.7c0.7,0,1.5,0,2.3,0c0.8,0,1.6,0,2.2,0.1c3.4,0.6,5.4,1.9,6.1,3.7
			c0.7,1.9,1.1,3.9,1.1,6v10.6c0,1.9,0.2,3.2,0.6,4.1c0.4,0.8,0.6,1.3,0.7,1.4h-19.8c-2.7,0-4.7-0.4-6.2-1.2
			c-1.5-0.8-2.2-2.5-2.2-5.1v-6.7c0-2.7-0.6-4.4-1.8-5.1c-1.2-0.6-3.3-0.9-6.3-0.9L710.2,583.6L710.2,583.6z M696.7,571.4
			c0.8,0,2.1,0,3.9,0.1c1.8,0,3.7,0.1,5.8,0.1s4,0,5.8,0c1.8,0,3,0,3.7,0c1.8,0,3.4-0.6,4.8-1.9c1.4-1.2,2.1-3.5,2.1-6.8
			c0-2.3-0.4-4.1-1.2-5.5c-0.8-1.3-2.1-2.1-3.9-2.4c-1.2-0.2-2.6-0.3-4.5-0.3c-1.8,0-3.7,0-5.7,0c-1.9,0-3.8,0-5.4,0.1
			c-1.6,0-2.9,0.1-3.7,0.1c-0.1,0-0.4,0.1-1,0.3c-0.6,0.2-0.9,0.8-0.9,1.7L696.7,571.4L696.7,571.4z"/>
		<path class="st0" d="M768.9,602.5v-53c0-3.4,0.5-5.6,1.5-6.7s3.5-1.6,7.4-1.6h25l25,34.7l0.8,4.1v-38.9h19
			c-0.1,0.2-0.2,0.8-0.3,1.9s-0.1,2.2-0.1,3.5c0,1.3,0,2.4,0,3.4v45.5c0,3.1-0.8,5-2.3,5.8c-1.5,0.8-4.2,1.1-8,1.1h-22.8l-26-35.8
			l-0.8-4.3v40.1L768.9,602.5L768.9,602.5z"/>
		<path class="st0" d="M868.8,602.5c0-8.9,0-17.8,0-26.7s0-17.8,0-26.7c0-1.7,0.1-3.1,0.4-4.3c0.3-1.2,1-2.1,2.2-2.7
			c1.2-0.6,3.2-0.9,5.9-0.9H895v61.2H868.8z"/>
		<path class="st0" d="M909.3,602.5l22.4-50.3c1.6-3.5,3.9-6.3,6.9-8.4c3-2,7.5-3.1,13.6-3.1c5,0,9.1,1,12.3,2.9
			c3.2,1.9,5.7,4.8,7.5,8.6l22.4,50.3H966l-5.7-12.5h-25.7l-5.3,12.5L909.3,602.5L909.3,602.5z M938.7,580.3h16.6l-6.7-15.7
			c-0.1-0.4-0.2-0.9-0.5-1.3c-0.2-0.4-0.6-0.7-1-0.7c-0.5,0-0.9,0.2-1.1,0.7c-0.2,0.4-0.4,0.9-0.6,1.3L938.7,580.3z"/>
	</g>
</g>
</svg>
