<?xml version="1.0" encoding="utf-8"?>
<!-- Generator: Adobe Illustrator 25.4.1, SVG Export Plug-In . SVG Version: 6.00 Build 0)  -->
<svg version="1.1" id="Layer_1" xmlns="http://www.w3.org/2000/svg" xmlns:xlink="http://www.w3.org/1999/xlink" x="0px" y="0px"
	 viewBox="0 0 988.7 603.6" style="enable-background:new 0 0 988.7 603.6;" xml:space="preserve">
<style type="text/css">
	.st0{fill:#F2F2F2;}
	.st1{fill:#60605F;}
	.st2{fill:none;}
</style>
<g>
	<path class="st0" d="M24.6,330.9c-6.3,0-12.6-2.4-17.4-7.2c-9.6-9.6-9.6-25.2,0-34.8L288.9,7.2c9.6-9.6,25.2-9.6,34.8,0
		c9.6,9.6,9.6,25.2,0,34.8L42,323.7C37.2,328.5,30.9,330.9,24.6,330.9z"/>
	<path class="st0" d="M183.4,374.3l145-145c16-16,16-42,0-58s-42-16-58,0l-174,174c-7.7,7.7-12,18.1-12,29s4.3,21.3,12,29l174,174
		c8,8,18.5,12,29,12s21-4,29-12c16-16,16-42,0-58L183.4,374.3z"/>
	<path class="st1" d="M794.2,171.4c-16-16-42-16-58,0s-16,42,0,58l63,63h116L794.2,171.4z"/>
	<path class="st1" d="M736.2,519.3c-16,16-16,42,0,58c8,8,18.5,12,29,12s21-4,29-12l120.9-120.9h-116L736.2,519.3z"/>
	<path class="st1" d="M367.7,564.8c-7.8,11.1-5.2,26.5,5.9,34.3c4.3,3,9.3,4.5,14.2,4.5c7.7,0,15.3-3.6,20.1-10.4l96.6-136.9h-60.2
		L367.7,564.8z"/>
	<path class="st1" d="M696.9,183.8c7.8-11.1,5.2-26.5-5.9-34.3s-26.5-5.2-34.3,5.9l-96.6,136.9h60.2L696.9,183.8z"/>
	<polygon class="st2" points="988.6,292.3 915.1,292.3 799.1,292.3 620.3,292.3 560.1,292.3 275.2,292.3 275.2,456.3 444.3,456.3 
		504.5,456.3 799.1,456.3 915.1,456.3 988.6,456.3 	"/>
	<g>
		<path class="st0" d="M275.2,404.3l22.4-50.3c1.6-3.5,3.9-6.3,6.9-8.4c3-2,7.5-3.1,13.6-3.1c5,0,9.1,1,12.3,2.9
			c3.2,1.9,5.7,4.8,7.5,8.6l22.4,50.3h-28.4l-5.7-12.5h-25.7l-5.3,12.5H275.2L275.2,404.3z M304.6,382.1h16.7l-6.7-15.7
			c-0.1-0.4-0.2-0.9-0.5-1.3c-0.2-0.4-0.6-0.7-1-0.7c-0.5,0-0.9,0.2-1.1,0.7c-0.2,0.4-0.4,0.9-0.6,1.3L304.6,382.1z"/>
		<path class="st0" d="M439.5,406.3c-3,0-5.9-0.3-8.5-0.9c-2.7-0.6-5-1.6-7.1-3.1c-0.6-0.5-1.4-1.1-2.3-1.8s-1.8-1.4-2.8-2.3
			c-1-0.8-2-1.7-3-2.6c-1-0.9-2-1.8-3-2.7s-1.9-1.8-2.8-2.7c-1.1-1.1-2-1.9-2.8-2.7c-0.8-0.7-1.7-1.5-2.8-2.3l-2.5-1.2v20.1h-26.1
			v-53.4c0-1.7,0.1-3.1,0.4-4.3s1-2,2.1-2.7c1.2-0.6,3.1-0.9,5.9-0.9c2.9,0,5.9,0,8.9,0s5.9,0,8.9,0c0,1.3,0,2.9,0,4.7s0,3.6,0,5.5
			s0,3.7,0,5.5s0,3.3,0,4.5l2.5-1.1c0.6-0.4,1.2-0.8,1.8-1.3c0.6-0.5,1.3-1.1,2.2-1.9c0.8-0.9,2.1-2.1,3.8-3.5s3.5-3,5.5-4.7
			c1.9-1.6,3.4-3,4.6-3.9c2.4-1.8,5-3,7.9-3.6s6.4-0.9,10.6-0.9c3,0,5.5,0.1,7.5,0.3s4.1,0.6,6.5,1c-0.2,0.1-0.7,0.6-1.5,1.4
			c-0.8,0.8-1.8,1.7-2.9,2.6c-1.1,0.9-1.9,1.6-2.4,2c-3.5,2.4-7.1,5-11,7.8s-7.7,5.6-11.4,8.4c-3.7,2.8-7.1,5.5-10,8.2l0.1-7.6
			c2.7,2.2,5.6,4.6,8.8,7.2c3.2,2.6,6.6,5.3,10.1,8.1s7.2,5.7,10.9,8.6c3.7,2.9,7.5,5.7,11.3,8.3c-0.5,0.8-1.6,1.8-3.1,3
			s-3.5,2.3-5.9,3.3C445.5,405.9,442.7,406.3,439.5,406.3z"/>
		<path class="st0" d="M472,404.3V350c0-3,0.6-4.9,1.9-5.7s3.5-1.2,6.7-1.2h17.6v22.8h26.1v-22.8h26.2v53.3c0,3.2-0.5,5.3-1.5,6.4
			c-1,1.1-3.4,1.6-7.3,1.6h-17.4v-25.2h-26.1v25.2L472,404.3L472,404.3z"/>
		<path class="st0" d="M564.7,404.3l22.4-50.3c1.6-3.5,3.9-6.3,6.9-8.4c3-2,7.5-3.1,13.6-3.1c5,0,9.1,1,12.3,2.9s5.7,4.8,7.5,8.6
			l22.4,50.3h-28.4l-5.7-12.5H590l-5.3,12.5H564.7L564.7,404.3z M594.2,382.1h16.6l-6.7-15.7c-0.1-0.4-0.2-0.9-0.5-1.3
			c-0.2-0.4-0.6-0.7-1-0.7c-0.5,0-0.9,0.2-1.1,0.7c-0.2,0.4-0.4,0.9-0.6,1.3L594.2,382.1z"/>
		<path class="st0" d="M704.5,385.4c-2.9,0-5.4,0-7.5,0.1c-2.1,0-4.1,0.1-6.1,0.1v18.8h-26.2v-52.6c0-2.6,0.6-4.7,1.7-6.3
			s3.7-2.4,7.6-2.4c1.3,0,3.4,0,6.3-0.1c2.9,0,6.2-0.1,9.9-0.1s7.6,0,11.7-0.1c4,0,7.9,0,11.5,0s6.8,0.1,9.5,0.1s4.6,0.1,5.8,0.2
			c4.9,0.4,8.6,1.9,11,4.3c2.5,2.4,3.7,6.4,3.7,12c0,5.3-0.3,9.1-0.9,11.3s-1.7,3.9-3.2,5.1c-0.7,0.6-1.7,1.1-3,1.4
			c-1.3,0.3-2.7,0.5-4.2,0.5v0.7c0.7,0,1.5,0,2.3,0s1.6,0,2.2,0.1c3.4,0.6,5.4,1.9,6.1,3.7c0.7,1.9,1.1,3.9,1.1,6v10.6
			c0,1.9,0.2,3.2,0.6,4.1c0.4,0.8,0.6,1.3,0.7,1.4h-19.8c-2.7,0-4.7-0.4-6.2-1.2s-2.2-2.5-2.2-5.1v-6.7c0-2.7-0.6-4.4-1.8-5.1
			c-1.2-0.6-3.3-0.9-6.3-0.9L704.5,385.4L704.5,385.4z M691,373.2c0.8,0,2.1,0,3.9,0.1c1.8,0,3.7,0.1,5.8,0.1s4,0,5.8,0s3,0,3.7,0
			c1.8,0,3.4-0.6,4.8-1.9c1.4-1.2,2.1-3.5,2.1-6.8c0-2.3-0.4-4.1-1.2-5.5c-0.8-1.3-2.1-2.1-3.9-2.4c-1.2-0.2-2.6-0.3-4.5-0.3
			c-1.8,0-3.7,0-5.7,0c-1.9,0-3.8,0-5.4,0.1c-1.6,0-2.9,0.1-3.7,0.1c-0.1,0-0.4,0.1-1,0.3s-0.9,0.8-0.9,1.7L691,373.2L691,373.2z"/>
		<path class="st0" d="M763.2,404.3v-53c0-3.4,0.5-5.6,1.5-6.7s3.5-1.6,7.4-1.6h25l25,34.7l0.8,4.1v-38.9h19
			c-0.1,0.2-0.2,0.8-0.3,1.9s-0.1,2.2-0.1,3.5s0,2.4,0,3.4v45.5c0,3.1-0.8,5-2.3,5.8s-4.2,1.1-8,1.1h-22.8l-26-35.8l-0.8-4.3v40.1
			L763.2,404.3L763.2,404.3z"/>
		<path class="st0" d="M863.1,404.3c0-8.9,0-17.8,0-26.7s0-17.8,0-26.7c0-1.7,0.1-3.1,0.4-4.3c0.3-1.2,1-2.1,2.2-2.7
			c1.2-0.6,3.2-0.9,5.9-0.9h17.7v61.2h-26.2V404.3z"/>
		<path class="st0" d="M903.6,404.3L926,354c1.6-3.5,3.9-6.3,6.9-8.4c3-2,7.5-3.1,13.6-3.1c5,0,9.1,1,12.3,2.9s5.7,4.8,7.5,8.6
			l22.4,50.3h-28.4l-5.7-12.5h-25.7l-5.3,12.5H903.6L903.6,404.3z M933,382.1h16.6l-6.7-15.7c-0.1-0.4-0.2-0.9-0.5-1.3
			c-0.2-0.4-0.6-0.7-1-0.7c-0.5,0-0.9,0.2-1.1,0.7c-0.2,0.4-0.4,0.9-0.6,1.3L933,382.1z"/>
	</g>
</g>
</svg>
